<svg xmlns="http://www.w3.org/2000/svg" xmlns:xlink="http://www.w3.org/1999/xlink" xmlns:lucid="lucid" width="1324.36" height="921.5"><g transform="translate(263.358024691358 -379.5)" lucid:page-tab-id="0_0"><path d="M-500 0h2000v1500H-500z" fill="#fff"/><path d="M400 626a6 6 0 0 1 6-6h168a6 6 0 0 1 6 6v628a6 6 0 0 1-6 6H406a6 6 0 0 1-6-6z" fill="#fff" fill-opacity="0"/><path d="M417.45 620h7.64m7.63 0h7.63m7.64 0h7.64m7.63 0h7.64m7.65 0h7.63m7.64 0h7.63m7.64 0h7.63m7.63 0H532m7.64 0h7.63m7.64 0h7.64m7.64 0H574l.94.07.9.22.88.35.8.5.72.6.6.72.5.8.37.88.23.9.07.95v4.03m0 8.05v8.05m0 8.05v8.05m0 8.05v8.05m0 8.05v8.06m0 8.05v8.04m0 8.05v8.04m0 8.05v8.04m0 8.05v8.05m0 8.05v8.05m0 8.05v8.05m0 8.05v8.05m0 8.06v8.06m0 8.05v8.06m0 8.05v8.06m0 8.05v8.06m0 8.06v8.05m0 8.05v8.05m0 8.05v8.05m0 8.05v8.05m0 8.06v8.05m0 8.05v8.05m0 8.05v8.05m0 8.05v8.05m0 8.06v8.05m0 8.04v8.05m0 8.04v8.05m0 8.04v8.06m0 8.05v8.05m0 8.05v8.05m0 8.05v8.05m0 8.05v8.05m0 8.06v8.05m0 8.06v8.05m0 8.06v8.05m0 8.06v8.06m0 8.05v8.05m0 8.05v8.05m0 8.05v8.05m0 8.05v4.03l-.07.94-.22.9-.35.88-.5.8-.6.72-.72.6-.8.5-.88.37-.9.23-.95.07h-3.82m-7.63 0h-7.64m-7.63 0h-7.63m-7.64 0h-7.64m-7.63 0h-7.64m-7.65 0h-7.63m-7.64 0h-7.63m-7.64 0h-7.63m-7.63 0H448m-7.64 0h-7.63m-7.64 0h-7.65m-7.63 0H406l-.94-.07-.9-.22-.88-.35-.8-.5-.72-.6-.6-.72-.5-.8-.37-.88-.23-.9-.07-.95v-4.03m0-8.05v-8.05m0-8.05v-8.05m0-8.05v-8.05m0-8.06v-8.04m0-8.05v-8.04m0-8.05v-8.04m0-8.05v-8.04m0-8.06v-8.05m0-8.05v-8.05m0-8.05v-8.05m0-8.05v-8.05m0-8.05v-8.06m0-8.05v-8.06m0-8.05v-8.06m0-8.05v-8.06m0-8.06v-8.05m0-8.05v-8.05m0-8.05v-8.05m0-8.05v-8.05m0-8.06v-8.05m0-8.05v-8.05m0-8.05v-8.05m0-8.05v-8.05m0-8.06v-8.05m0-8.04v-8.05m0-8.04v-8.05m0-8.04v-8.05m0-8.05v-8.05m0-8.05V783m0-8.05v-8.05m0-8.05v-8.06m0-8.06v-8.05m0-8.06v-8.05m0-8.06v-8.05m0-8.06v-8.06m0-8.05v-8.05m0-8.05v-8.05m0-8.05v-8.05m0-8.05V626l.07-.94.22-.9.35-.88.5-.8.6-.72.72-.6.8-.5.88-.37.9-.23.95-.07h3.82" stroke="#5a6c86" stroke-width="2" fill="none"/><use xlink:href="#a" transform="matrix(1,0,0,1,400,640) translate(50.753395061728405 17.955555555555552)"/><path d="M180 626a6 6 0 0 1 6-6h168a6 6 0 0 1 6 6v488a6 6 0 0 1-6 6H186a6 6 0 0 1-6-6z" fill="#fff" fill-opacity="0"/><path d="M197.46 620h7.63m7.63 0h7.63m7.64 0h7.64m7.63 0h7.64m7.65 0h7.63m7.64 0h7.63m7.64 0h7.63m7.63 0H312m7.64 0h7.63m7.64 0h7.65m7.63 0H354l.94.07.9.22.88.35.8.5.72.6.6.72.5.8.37.88.23.9.07.95v3.93m0 7.88v7.88m0 7.87v7.87m0 7.87v7.86m0 7.87v7.87m0 7.87v7.88m0 7.87v7.87m0 7.86v7.87m0 7.87v7.87m0 7.87v7.87m0 7.88v7.88m0 7.87v7.87m0 7.87v7.87m0 7.87v7.88m0 7.87v7.87m0 7.87v7.87m0 7.86v7.88m0 7.88v7.87m0 7.87v7.87m0 7.86v7.87m0 7.87v7.87m0 7.88v7.87m0 7.87v7.86m0 7.87V992m0 7.87v7.87m0 7.87v7.88m0 7.88v7.87m0 7.87v7.87m0 7.87v7.87m0 7.88v7.87m0 7.87v7.87m0 7.87v3.93l-.07.94-.22.9-.35.88-.5.8-.6.72-.72.6-.8.5-.88.37-.9.23-.95.07h-3.82m-7.63 0h-7.64m-7.63 0h-7.63m-7.64 0h-7.64m-7.63 0h-7.64m-7.65 0h-7.63m-7.64 0h-7.63m-7.64 0h-7.63m-7.63 0H228m-7.64 0h-7.63m-7.64 0h-7.64m-7.64 0H186l-.94-.07-.9-.22-.88-.35-.8-.5-.72-.6-.6-.72-.5-.8-.37-.88-.23-.9-.07-.95v-3.93m0-7.88v-7.88m0-7.87v-7.87m0-7.87v-7.86m0-7.87v-7.87m0-7.87v-7.88m0-7.87v-7.87m0-7.86v-7.87m0-7.87v-7.87m0-7.87v-7.87m0-7.88v-7.88m0-7.87v-7.87m0-7.87v-7.87m0-7.87v-7.88m0-7.87v-7.87m0-7.87v-7.87m0-7.86v-7.88m0-7.88v-7.87m0-7.87v-7.87m0-7.86v-7.87m0-7.87v-7.87m0-7.88v-7.87m0-7.87v-7.86m0-7.87V748m0-7.87v-7.87m0-7.87v-7.88m0-7.88v-7.87m0-7.87v-7.87m0-7.87v-7.87m0-7.88v-7.87m0-7.87v-7.87m0-7.87V626l.07-.94.22-.9.35-.88.5-.8.6-.72.72-.6.8-.5.88-.37.9-.23.95-.07h3.82" stroke="#5a6c86" stroke-width="2" fill="none"/><use xlink:href="#b" transform="matrix(1,0,0,1,180,640) translate(66.33981481481482 17.955555555555552)"/><path d="M840 626a6 6 0 0 1 6-6h168a6 6 0 0 1 6 6v347.1a6 6 0 0 1-6 6H846a6 6 0 0 1-6-6z" fill="#fff" fill-opacity="0"/><path d="M857.46 620h7.63m7.63 0h7.63m7.64 0h7.64m7.63 0h7.64m7.64 0h7.64m7.64 0h7.63m7.64 0h7.63m7.63 0H972m7.64 0h7.63m7.64 0h7.64m7.64 0h3.82l.94.07.9.22.88.35.8.5.72.6.6.72.5.8.37.88.23.9.07.95v3.94m0 7.9v7.88m0 7.9v7.88m0 7.9v7.88m0 7.9v7.88m0 7.9v7.87m0 7.9v7.88m0 7.9v7.9m0 7.88v7.9m0 7.88v7.9m0 7.87v7.9m0 7.88v7.9m0 7.9v7.88m0 7.9v7.88m0 7.9v7.87m0 7.9v7.88m0 7.9v7.9m0 7.88v7.9m0 7.88v7.9m0 7.87v7.9m0 7.88v7.9m0 7.9v7.88m0 7.9v3.93l-.07.95-.22.92-.35.87-.5.8-.6.7-.72.63-.8.5-.88.35-.9.22-.95.07h-3.82m-7.63 0h-7.64m-7.63 0h-7.63m-7.64 0h-7.64m-7.63 0h-7.64m-7.64 0h-7.64m-7.64 0h-7.63m-7.64 0h-7.63m-7.63 0H888m-7.64 0h-7.63m-7.64 0h-7.64m-7.64 0H846l-.94-.06-.9-.22-.88-.36-.8-.5-.72-.6-.6-.72-.5-.8-.37-.87-.23-.92-.07-.94v-3.93m0-7.9v-7.88m0-7.9v-7.9m0-7.88v-7.9m0-7.88v-7.88m0-7.9v-7.88m0-7.9v-7.88m0-7.9v-7.88m0-7.9v-7.88m0-7.88v-7.9m0-7.88v-7.9m0-7.88v-7.9m0-7.88v-7.9m0-7.88v-7.88m0-7.9v-7.88m0-7.9v-7.88m0-7.9v-7.88m0-7.9v-7.88m0-7.88v-7.9m0-7.88v-7.9m0-7.88v-7.9m0-7.88v-7.9m0-7.88V626l.07-.94.22-.9.35-.88.5-.8.6-.72.72-.6.8-.5.88-.37.9-.23.95-.07h3.82" stroke="#5a6c86" stroke-width="2" fill="none"/><use xlink:href="#c" transform="matrix(1,0,0,1,840,640) translate(9.168827160493848 17.955555555555552)"/><path d="M620 626a6 6 0 0 1 6-6h168a6 6 0 0 1 6 6v368a6 6 0 0 1-6 6H626a6 6 0 0 1-6-6z" fill="#fff" fill-opacity="0"/><path d="M637.46 620h7.63m7.63 0h7.63m7.64 0h7.64m7.63 0h7.64m7.64 0h7.64m7.64 0h7.63m7.64 0h7.63m7.63 0H752m7.64 0h7.63m7.64 0h7.64m7.64 0H794l.94.07.9.22.88.35.8.5.72.6.6.72.5.8.37.88.23.9.07.95v4m0 8v8m0 8v8m0 8v8m0 8v8m0 8v8m0 8v8m0 8v8m0 8v8m0 8v8m0 8v8m0 8v8m0 8v8m0 8v8m0 8v8m0 8v8m0 8v8m0 8v8m0 8v8m0 8v8m0 8v8m0 8v8m0 8v8m0 8v4l-.07.94-.22.9-.35.88-.5.8-.6.72-.72.6-.8.5-.88.37-.9.23-.95.07h-3.82m-7.63 0h-7.64m-7.63 0h-7.63m-7.64 0h-7.64m-7.63 0h-7.64m-7.64 0h-7.64m-7.64 0h-7.63m-7.64 0h-7.63m-7.63 0H668m-7.64 0h-7.63m-7.64 0h-7.64m-7.64 0H626l-.94-.07-.9-.22-.88-.35-.8-.5-.72-.6-.6-.72-.5-.8-.37-.88-.23-.9-.07-.95v-4m0-8v-8m0-8v-8m0-8v-8m0-8v-8m0-8v-8m0-8v-8m0-8v-8m0-8v-8m0-8v-8m0-8v-8m0-8v-8m0-8v-8m0-8v-8m0-8v-8m0-8v-8m0-8v-8m0-8v-8m0-8v-8m0-8v-8m0-8v-8m0-8v-8m0-8v-8m0-8v-4l.07-.94.22-.9.35-.88.5-.8.6-.72.72-.6.8-.5.88-.37.9-.23.95-.07h3.82" stroke="#5a6c86" stroke-width="2" fill="none"/><use xlink:href="#d" transform="matrix(1,0,0,1,620,640.0000000000002) translate(61.69753086419753 17.77777777777778)"/><path d="M-40 626a6 6 0 0 1 6-6h168a6 6 0 0 1 6 6v368a6 6 0 0 1-6 6H-34a6 6 0 0 1-6-6z" fill="#fff" fill-opacity="0"/><path d="M-22.55 620h7.64m7.63 0H.36M8 620h7.64m7.63 0h7.64m7.65 0h7.63m7.64 0h7.63m7.64 0h7.63m7.63 0H92m7.64 0h7.63m7.64 0h7.64m7.64 0H134l.94.07.9.22.88.35.8.5.72.6.6.72.5.8.37.88.23.9.07.95v4m0 8v8m0 8v8m0 8v8m0 8v8m0 8v8m0 8v8m0 8v8m0 8v8m0 8v8m0 8v8m0 8v8m0 8v8m0 8v8m0 8v8m0 8v8m0 8v8m0 8v8m0 8v8m0 8v8m0 8v8m0 8v8m0 8v8m0 8v4l-.07.94-.22.9-.35.88-.5.8-.6.72-.72.6-.8.5-.88.37-.9.23-.95.07h-3.82m-7.64 0h-7.63m-7.63 0h-7.63m-7.64 0h-7.64m-7.63 0H69.1m-7.64 0h-7.64m-7.64 0h-7.63m-7.64 0h-7.63m-7.63 0H8m-7.64 0h-7.63m-7.64 0h-7.65m-7.63 0H-34l-.94-.07-.9-.22-.88-.35-.8-.5-.72-.6-.6-.72-.5-.8-.37-.88-.23-.9-.07-.95v-4m0-8v-8m0-8v-8m0-8v-8m0-8v-8m0-8v-8m0-8v-8m0-8v-8m0-8v-8m0-8v-8m0-8v-8m0-8v-8m0-8v-8m0-8v-8m0-8v-8m0-8v-8m0-8v-8m0-8v-8m0-8v-8m0-8v-8m0-8v-8m0-8v-8m0-8v-8m0-8v-4l.07-.94.22-.9.35-.88.5-.8.6-.72.72-.6.8-.5.88-.37.9-.23.95-.07h3.82" stroke="#5a6c86" stroke-width="2" fill="none"/><use xlink:href="#e" transform="matrix(1,0,0,1,-40,640.0000000000002) translate(19.64999999999999 14.4)"/><path d="M-120 566a6 6 0 0 1 6-6h1148a6 6 0 0 1 6 6v708a6 6 0 0 1-6 6H-114a6 6 0 0 1-6-6z" stroke="#232f3e" stroke-width="2" fill="#fff" fill-opacity="0"/><path d="M-120 560h56v56h-56v-56z" stroke="#fff" stroke-opacity="0" fill="#232f3e"/><path d="M-101.78 585.87c-.04.48.05.87.17 1.34.1.4.28.7.48 1.07.04.1.08.22.08.34 0 .2-.12.36-.28.46l-.95.62c-.12.1-.25.13-.37.13-.16 0-.33-.06-.45-.2-.2-.22-.36-.43-.52-.7-.17-.25-.3-.53-.45-.86-1.1 1.37-2.63 2.1-4.4 2.06-1.15.06-2.13-.3-2.96-1.08-.78-.8-1.14-1.76-1.1-2.85-.05-1.23.4-2.28 1.35-3.08 1.07-.86 2.3-1.23 3.66-1.16.57 0 1.02.02 1.6.1.57.1 1.1.2 1.72.33v-1.1c.08-.88-.16-1.67-.7-2.37-.74-.56-1.56-.8-2.46-.7-.53 0-1.03.07-1.6.2-.58.13-1.03.3-1.6.5l-.5.2h-.24c-.2 0-.33-.16-.33-.45v-.75c0-.18.04-.33.12-.5.1-.16.24-.26.4-.33.66-.3 1.2-.5 1.9-.67.77-.2 1.47-.3 2.3-.28 1.47-.13 2.78.26 3.9 1.2.94 1.05 1.35 2.28 1.22 3.67zm-6.07 2.28c.57 0 1.06-.1 1.6-.28.57-.2 1.03-.5 1.44-.96h-.02c.25-.27.42-.56.5-.93.12-.45.16-.84.16-1.3V584c-.53-.1-.94-.17-1.44-.2h-1.4c-.8-.08-1.55.12-2.2.58-.54.45-.8 1.04-.75 1.73-.04.62.13 1.16.54 1.6.44.38.97.52 1.55.45zm12 1.6c-.22 0-.42-.03-.6-.15-.15-.17-.23-.36-.32-.6l-3.5-11.5-.1-.62c0-.24.1-.37.36-.37h1.47c.2 0 .37.04.57.15.17.18.25.37.3.6l2.5 9.96 2.38-9.93c0-.24.08-.44.28-.6.17-.12.37-.16.58-.14h1.2c.24-.02.4.02.6.13.17.2.25.37.3.6l2.33 9.95 2.56-10c.04-.2.16-.4.33-.58.15-.1.36-.17.56-.14h1.4c.16 0 .33.12.37.3v.31s0 .2-.12.35l-3.6 11.53c-.05.22-.13.42-.3.6-.2.1-.37.14-.57.13h-1.27c-.25.04-.45-.02-.62-.15-.16-.16-.24-.36-.3-.6l-2.3-9.6-2.28 9.6c-.05.24-.13.43-.3.6-.2.13-.4.2-.6.16zm19.2.38c-.82 0-1.52-.07-2.3-.25-.65-.13-1.14-.3-1.72-.6-.2-.1-.37-.23-.45-.4-.08-.16-.12-.3-.12-.45v-.75c0-.3.12-.46.32-.46h.3l.36.15c.58.24 1.03.4 1.6.5.62.15 1.15.2 1.8.2.8.06 1.5-.1 2.2-.48.48-.32.77-.83.72-1.42.05-.4-.12-.76-.37-1.04-.46-.4-.95-.65-1.52-.8l-2.18-.68c-.94-.25-1.72-.73-2.38-1.5-.5-.65-.74-1.35-.74-2.18 0-.6.12-1.08.4-1.6.3-.5.63-.9 1.08-1.22.5-.38.98-.6 1.6-.78.66-.18 1.2-.26 1.9-.25.32-.03.6-.03.97 0l1 .16.8.23.67.25c.16.1.28.22.45.38.08.15.12.3.12.5v.7c0 .3-.12.47-.37.47-.2-.03-.37-.1-.57-.18-.95-.42-1.8-.6-2.88-.58-.7-.04-1.3.08-1.97.4-.5.3-.74.8-.7 1.36 0 .4.13.76.45 1.05.5.4 1 .65 1.6.82l2.1.67c.94.24 1.7.7 2.3 1.43.5.64.7 1.3.7 2.1 0 .63-.13 1.17-.37 1.73-.3.55-.62.95-1.1 1.32-.5.4-1 .66-1.6.84-.75.23-1.4.33-2.15.34zM-73.9 597.5c-5.6 3.8-11.36 5.56-18.15 5.54-8.54.05-15.82-2.74-22.16-8.45-.5-.42 0-1 .48-.68 7.07 4.05 14.03 5.9 22.2 5.9 6.1-.04 11.3-1.1 16.93-3.47.83-.35 1.52.54.7 1.13z" stroke="#fff" stroke-opacity="0" fill="#fff"/><path d="M-71.84 595.2c-.64-.82-4.16-.38-5.75-.2-.46 0-.53-.36-.1-.66 2.8-1.98 7.42-1.4 8-.74.6.67-.14 5.28-2.78 7.5-.4.32-.78.13-.6-.3.54-1.52 1.86-4.83 1.24-5.6z" stroke="#fff" stroke-opacity="0" fill="#fff"/><path d="M-240 560h100v100h-100V560z" stroke="#000" stroke-opacity="0" fill="#3b48cc"/><path d="M-165.37 622.66l-11.28-6.3v-12.5c0-.5-.23-.95-.68-1.17l-11.97-6.7c-.45-.28-.97-.28-1.35 0l-12.04 6.7c-.37.2-.6.65-.6 1.1v12.47l-11.36 6.4c-.45.2-.68.65-.68 1.17v14.68c0 .44.23.88.68 1.1l12.04 6.9c.15.07.38.15.6.15.23 0 .46-.08.68-.15l11.37-6.53 11.36 6.37c.22.08.44.15.67.15.22 0 .45-.07.6-.15l12.04-6.68c.46-.23.7-.67.7-1.18v-14.68c0-.52-.3-.96-.77-1.18zm-35.22-16.52l9.35 5.22v10.2l-9.34-5.14zm21.3 10.2l-9.32 5.22v-10.2l9.33-5.22zm-9.32 9.77l9.33 5.37V643l-9.32-5.22zm1.36-2.26l9.33-5.14 9.33 5.2-9.26 5.22zm-2.7-25.1l9.24 5.13-9.33 5.14-9.18-5.13zm-22.67 27.37l9.34 5.3v11.67l-9.33-5.36zm10.7 2.95l-9.34-5.14 9.33-5.2 9.26 5.13zm10.68 8.66l-9.34 5.37v-11.75l9.35-5.2zm24 0l-9.33 5.22V631.4l9.33-5.22zm14.9-29.28c.3 6.46-3.83 12.2-10.16 13.8l-.83-2.5c5.2-1.32 8.58-6.02 8.28-11.3 0-9.1-7.45-11.3-10.7-11.9-.67-.14-1.2-.8-1.04-1.46-.37-4.2-2.25-7.12-5.2-8-2.55-.74-5.18.22-6.7 2.34-.44.67-1.27.74-1.87.3-.22-.15-.37-.37-.45-.6-1.05-3.07-2.48-5.42-4.74-7.77-5.04-5.36-12.57-6.83-19.27-3.9-5.64 2.43-10.08 9.4-10.08 15.72 0 .73.06 1.4.14 2.13.08.73-.38 1.32-1.05 1.47-5.5 1.1-9.27 5.94-8.97 11.52v.8c.3 5.37 4.06 9.7 9.33 10.8l-.6 2.64c-6.47-1.46-11-6.74-11.36-13.35v-.88c-.3-6.46 3.68-12.04 9.85-13.8v-1.32c0-7.5 5.05-15.35 11.75-18.13 7.75-3.45 16.33-1.77 22.12 4.4 2.03 2.06 3.46 4.2 4.6 6.83 2.33-1.9 5.1-2.57 8.04-1.76 3.84 1.16 6.48 4.68 7 9.6 3.77.88 11.82 4.04 11.82 14.32z" stroke="#000" stroke-opacity="0" fill="#fff"/><use xlink:href="#f" transform="matrix(1,0,0,1,-270,669) translate(28.64197530864198 17.77777777777778)"/><use xlink:href="#g" transform="matrix(1,0,0,1,-270,669) translate(84.5679012345679 17.77777777777778)"/><path d="M0 680h100v100H0V680z" stroke="#fff" stroke-opacity="0" stroke-width="2" fill="#d86613"/><path d="M80.67 763.33H64.24c-.54 0-.96-.26-1.18-.73L39.8 714H30c-.76 0-1.35-.6-1.35-1.33V698c0-.73.6-1.33 1.34-1.33H50.5c.54 0 .97.26 1.18.73L74.85 746h5.82c.74 0 1.33.6 1.33 1.33V762c0 .73-.6 1.33-1.33 1.33zm-15.58-2.66h14.23v-12H74c-.53 0-.96-.27-1.18-.74l-23.15-48.6H31.32v12h9.34c.53 0 .96.27 1.22.74z" stroke="#fff" stroke-opacity="0" stroke-width="2" fill="#fff"/><path d="M36.63 763.33H19.3c-.46 0-.87-.24-1.14-.6-.27-.45-.27-.94-.06-1.35l18.15-37.88c.2-.48.67-.77 1.18-.77.53 0 .97.3 1.2.73l8.68 17.87c.22.36.22.77 0 1.18l-9.46 19.98c-.18.53-.65.85-1.2.85zm-15.2-2.68H35.8l8.83-18.63-7.17-14.9z" stroke="#fff" stroke-opacity="0" stroke-width="2" fill="#fff"/><use xlink:href="#h" transform="matrix(1,0,0,1,-30,789.0000000000002) translate(36.26543209876543 17.77777777777778)"/><use xlink:href="#i" transform="matrix(1,0,0,1,-30,789.0000000000002) translate(34.35185185185185 44.44444444444444)"/><path d="M441.76 962.88h96.48v96.47h-96.48z" stroke="#fff" stroke-opacity="0" fill="#1c7b68"/><path d="M536.5 964.6v93h-93v-93h93m3.5-3.5H440v100h100v-100z" stroke="#fff" stroke-opacity="0" fill="#fff"/><path d="M520 1016.56c-.14-.23-.3-.34-.54-.4l-3.53-1.1c.25-2.27.2-4.25-.16-6.5l3.44-1.35c.34-.1.56-.28.7-.63.13-.3.13-.58 0-.92l-4.62-10.17c-.24-.58-.92-.87-1.5-.63h-.12l-3.25 1.68c-1.43-1.74-2.87-3.08-4.7-4.4l1.5-3.38c.28-.58 0-1.28-.6-1.57l-10-3.72h-1.67c-.2.12-.33.3-.4.53l-1.17 3.53h-.47v2.38c.4-.05.78 0 1.16.13.6.05 1.14-.3 1.33-.82l1.02-3.3 8.1 3.14-1.4 3.13c-.22.47-.06 1.05.4 1.4 2.28 1.5 3.96 3.07 5.6 5.22.34.52.96.63 1.5.34l3.1-1.56 3.5 7.9-3.18 1.15c-.54.24-.84.76-.74 1.34.55 2.67.6 5 .22 7.66-.1.6.25 1.17.82 1.34l3.25 1-3.1 8.06-3.15-1.34c-.54-.24-1.14-.07-1.46.4-1.53 2.26-3.13 3.95-5.3 5.57-.48.35-.62 1-.35 1.5l1.63 3.03-7.92 3.55-1.16-3.14c-.25-.57-.84-.86-1.4-.7-.88.2-1.58.24-2.45.3v2.38c.65 0 1.22-.1 1.9-.23l1.3 3.43c.1.3.32.52.65.64.3.17.62.17.95 0l10.2-4.53s.04-.07.1-.07c.57-.3.75-1.05.46-1.63l-1.7-3.2c1.8-1.44 3.14-2.9 4.5-4.75l3.36 1.5s.03.07.05.07c.6.23 1.3-.06 1.56-.64l3.74-9.88z" stroke="#fff" stroke-opacity="0" fill="#fff"/><path d="M503.53 1012.26c-.04-6.22-4.45-11.4-10.6-12.4v2.36c5.56 1 9.2 6.34 8.2 11.92-.82 4.24-3.95 7.35-8.2 8.17v2.36c6.15-1 10.6-6.17 10.6-12.4zm-12.33-24.9l-7.03-4.35c-.38-.23-.8-.23-1.2 0l-14.1 8.35c-.42.18-.63.6-.63 1v8.34l-6.4 3.34c-.42.24-.67.65-.67 1.06v14.16c0 .4.16.76.5 1l6.57 4.22v7.7c0 .4.17.76.55 1l14.1 8.17c.2.1.38.23.63.23.22 0 .43-.06.6-.17l7.07-4.1c.34-.24.6-.6.6-1.07v-47.88c0-.4-.22-.82-.6-1zm-1.78 48.23l-5.9 3.4-5.28-3.06 6.6-3.93-1.14-2-7.75 4.65-5.38-3.12v-7l6.35-3.63-1.18-2-6.3 3.6-5.9-3.95v-5.58l6.18-3.52-1.18-2.06-5 2.87v-4.47l5.9-3.05 5.87 3.3v5.5l-6.64 3.77 1.2 2 6.6-3.82 5.9 2.88v6.75l-7.5 4.3 1.13 2.05 13.42-7.93zm-4.7-13.88v-6.52c0-.4-.26-.82-.64-1.06l-6.44-3.23v-5.33l6.5-3.6c.37-.22.58-.57.58-1.04v-9.23h-2.37v8.52l-5.9 3.23-5.88-3.3v-7.63l4.74-2.82v6.7h2.34v-8.1l5.9-3.4 5.88 3.57v20.5l-4.1-2.35-1.15 2.06 5.25 3v7.4z" stroke="#fff" stroke-opacity="0" fill="#fff"/><use xlink:href="#j" transform="matrix(1,0,0,1,410,1070.1106860942891) translate(39.29012345679013 17.77777777777778)"/><path d="M440 1101.1h100v100H440v-100z" stroke="#fff" stroke-opacity="0" stroke-width="2" fill="#3b48cc"/><path d="M507 1155.1l-8.83 8.8c1.68-.48 3.04-1 4.58-1.88.9.54 1.4 1.4 1.58 2.4 0 2.46-5.16 5.13-12.83 6.2-2.54.33-4.63.46-7.17.46h-1.3c-10.8-.2-18.7-3.6-18.7-6.66.14-1 .7-1.8 1.6-2.4 4.17 2.33 10.97 3.73 18.4 3.73h.14l.77-2.66h-.9c-7.35 0-14.15-1.48-17.74-3.74-1.45-.93-2.26-2-2.26-2.87v-6.2c4.08 3.13 12.2 4.73 20 4.73 1.04 0 2.08 0 3.13-.07l.77-2.66c-1.37.06-2.6.13-3.9.13-11.43 0-20-3.53-20-6.66.13-1.07.68-1.87 1.58-2.4 3.68 2.07 9.34 3.33 15.74 3.66l.1-2.66c-6.3-.33-12.03-1.67-15.16-3.73-1.45-.87-2.22-1.93-2.26-2.87v-6.12c4.08 3.13 12.2 4.73 20 4.73h.27l1.46-2.67h-1.73c-11.42 0-20-3.45-20-6.65 0-3.13 8.58-6.66 20-6.66 4.04 0 7.5.4 11.43 1.32h7.35c-4.03-2.46-10.92-4-18.77-4-10.97 0-22.67 3.27-22.67 9.33v10.73c.1 1.6.77 2.93 2.04 3.92-1.27 1.07-1.95 2.4-2.04 4v10.66c.1 1.67.77 3 2.04 4.06-1.27 1-1.95 2.34-2.04 4v10.93c.36 5.86 11.84 9 22.67 9 10.84 0 22.32-3.14 22.68-9.07v-10.92c-.04-1.6-.76-3-2.03-4 1.27-1 1.95-2.4 2.04-4zm-2.67 19.98c0 3.13-8.57 6.66-20 6.66-11.42 0-20-3.46-20-6.66v-6.13c4.1 3.06 12.2 4.73 20 4.73 7.8 0 15.92-1.67 20-4.73z" stroke="#fff" stroke-opacity="0" stroke-width="2" fill="#fff"/><path d="M470 1137.8c0 .92-.75 1.67-1.67 1.67-.92 0-1.66-.75-1.66-1.67 0-.92.74-1.66 1.66-1.66.92 0 1.67.74 1.67 1.66zM470 1156.47c0 .92-.75 1.67-1.67 1.67-.92 0-1.66-.75-1.66-1.67 0-.92.74-1.67 1.66-1.67.92 0 1.67.75 1.67 1.67zM470 1175.14c0 .92-.75 1.66-1.67 1.66-.92 0-1.66-.74-1.66-1.66 0-.92.74-1.67 1.66-1.67.92 0 1.67.75 1.67 1.67zM487.66 1169.75c-.24 0-.44-.04-.67-.18-.55-.32-.78-.95-.6-1.54l7.47-24.96h-7.55c-.74.05-1.34-.54-1.34-1.32 0-.22.04-.45.17-.63l8-16.02c.22-.45.65-.72 1.2-.72h17.33c.73-.05 1.34.54 1.37 1.27.03.18 0 .3-.03.5l-3.45 10.2h7.5c.72.05 1.32.64 1.32 1.37 0 .36-.14.63-.37.9l-29.34 30.68c-.28.32-.6.45-1.04.45zm.83-29.3h7.18c.43 0 .8.17 1.06.5.24.35.34.76.2 1.17l-6.4 21.32 23.34-24.36h-6.2c-.75 0-1.38-.55-1.4-1.27 0-.17 0-.36.05-.5l3.4-10.25h-14.66z" stroke="#fff" stroke-opacity="0" stroke-width="2" fill="#fff"/><use xlink:href="#k" transform="matrix(1,0,0,1,410,1210.1106860942893) translate(19.01234567901235 17.77777777777778)"/><use xlink:href="#l" transform="matrix(1,0,0,1,410,1210.1106860942893) translate(72.03703703703704 17.77777777777778)"/><path d="M220 960.9h100v100H220v-100z" stroke="#fff" stroke-opacity="0" stroke-width="2" fill="#3b48cc"/><path d="M287 1014.87l-8.83 8.8c1.68-.47 3.04-1 4.58-1.87.9.53 1.4 1.4 1.58 2.4 0 2.46-5.16 5.13-12.83 6.2-2.54.33-4.63.46-7.17.46h-1.3c-10.8-.2-18.7-3.6-18.7-6.66.14-1 .7-1.8 1.6-2.4 4.17 2.33 10.97 3.73 18.4 3.73h.14l.77-2.66h-.9c-7.35 0-14.15-1.47-17.74-3.74-1.45-.93-2.26-2-2.26-2.86v-6.2c4.08 3.14 12.2 4.73 20 4.73 1.04 0 2.08 0 3.13-.06l.77-2.67c-1.37.07-2.6.14-3.9.14-11.43 0-20-3.52-20-6.65.13-1.07.68-1.87 1.58-2.4 3.68 2.06 9.34 3.33 15.74 3.66l.1-2.65c-6.3-.34-12.03-1.67-15.16-3.73-1.45-.87-2.22-1.93-2.26-2.87v-6.13c4.08 3.13 12.2 4.73 20 4.73h.27l1.46-2.66h-1.73c-11.42 0-20-3.48-20-6.67 0-3.13 8.58-6.66 20-6.66 4.04 0 7.5.4 11.43 1.33h7.35c-4.03-2.47-10.92-4-18.77-4-10.97 0-22.67 3.27-22.67 9.33v10.72c.1 1.6.77 2.93 2.04 3.93-1.27 1.07-1.95 2.4-2.04 4v10.66c.1 1.66.77 3 2.04 4.06-1.27 1-1.95 2.33-2.04 4v10.92c.36 5.86 11.84 9 22.67 9 10.84 0 22.32-3.14 22.68-9.06v-10.94c-.04-1.6-.76-3-2.03-4 1.27-1 1.95-2.4 2.04-4zm-2.67 20c0 3.12-8.57 6.65-20 6.65-11.42 0-20-3.47-20-6.66v-6.13c4.1 3.06 12.2 4.73 20 4.73 7.8 0 15.92-1.67 20-4.73z" stroke="#fff" stroke-opacity="0" stroke-width="2" fill="#fff"/><path d="M250 997.58c0 .92-.75 1.67-1.67 1.67-.92 0-1.66-.75-1.66-1.67 0-.92.74-1.67 1.66-1.67.92 0 1.67.76 1.67 1.68zM250 1016.25c0 .92-.75 1.66-1.67 1.66-.92 0-1.66-.73-1.66-1.65 0-.92.74-1.67 1.66-1.67.92 0 1.67.75 1.67 1.67zM250 1034.9c0 .93-.75 1.68-1.67 1.68-.92 0-1.66-.74-1.66-1.66 0-.93.74-1.67 1.66-1.67.92 0 1.67.74 1.67 1.66zM267.66 1029.53c-.24 0-.44-.05-.67-.18-.55-.32-.78-.96-.6-1.54l7.47-24.95h-7.55c-.74.04-1.34-.55-1.34-1.32 0-.23.04-.45.17-.63l8-16.02c.22-.45.65-.73 1.2-.73h17.33c.73-.04 1.34.55 1.37 1.27.03.2 0 .32-.03.5l-3.45 10.2h7.5c.72.06 1.32.65 1.32 1.37 0 .36-.14.63-.37.9l-29.34 30.68c-.28.3-.6.45-1.04.45zm.83-29.3h7.18c.43 0 .8.17 1.06.5.24.35.34.76.2 1.16l-6.4 21.32 23.34-24.37h-6.2c-.75 0-1.38-.54-1.4-1.26 0-.2 0-.38.05-.5l3.4-10.27h-14.66z" stroke="#fff" stroke-opacity="0" stroke-width="2" fill="#fff"/><use xlink:href="#m" transform="matrix(1,0,0,1,190,1069.8885488754313) translate(23.30246913580247 17.77777777777778)"/><path d="M0 840h100v100H0V840z" stroke="#000" stroke-opacity="0" fill="#cd2264"/><path d="M29.21 911.65h.02c3.4-2.17 4.56-6.57 2.75-10.23-2.03-3.8-6.8-5.37-10.65-3.35l-4.63-8 7.66-13.35-2.3-1.34L14 889.34c-.28.44-.28.9 0 1.34l5.15 8.95c-1.45 1.57-2.17 3.36-2.17 5.45 0 4.33 3.47 7.9 7.82 7.9.72 0 1.3-.06 1.95-.2l4.2 7.3c.3.45.73.67 1.16.67h16.6v-2.6H32.9zm-4.4-1.27c-2.83 0-5.22-2.4-5.22-5.22 0-2.9 2.4-5.23 5.22-5.23 2.9 0 5.2 2.32 5.2 5.23 0 2.83-2.3 5.14-5.2 5.14zM86 889.34l-5.08-8.8c2.97-2.17 4.06-5.98 2.54-9.4-1.67-3.97-6.3-5.84-10.28-4.12l-4.13-7.16c-.3-.38-.73-.67-1.16-.67H51.3v2.67h15.8l3.83 6.64c-2.32 2.18-3.2 5.24-2.25 8.22 1.3 4.18 5.73 6.5 9.93 5.15l4.7 8.14-6.65 11.5 2.32 1.34L86 890.68c.28-.45.28-.9 0-1.34zm-9.7-9.86c-2.9 0-5.22-2.38-5.22-5.22 0-2.9 2.3-5.22 5.2-5.22 2.83 0 5.15 2.3 5.15 5.22 0 2.84-2.32 5.22-5.14 5.22zm-8.05 32.1c-1 0-1.88.14-2.82.52l-5.65-9.56-.3.15 6.96-11.95c.3-.45.3-.97 0-1.34L58.84 876c-.3-.38-.73-.68-1.16-.68H43.63l-5.15-8.8c1.82-1.5 2.76-3.58 2.76-5.97 0-4.33-3.55-7.84-7.9-7.84-4.34 0-7.82 3.5-7.82 7.9 0 4.33 3.55 7.84 7.9 7.84 1 0 1.88-.15 2.82-.52l4.78 8.13-7.6 13.3c-.3.43-.3.88 0 1.33l7.67 13.36c.28.37.64.6 1.15.6h15.43c.07.07.2.07.3 0l5.2 8.87c-1.8 1.58-2.68 3.6-2.68 5.98 0 4.33 3.48 7.84 7.82 7.84 4.35 0 7.9-3.5 7.9-7.9-.08-4.34-3.55-7.85-7.9-7.77zM33.4 865.74h.02c-2.9 0-5.22-2.38-5.15-5.22 0-2.9 2.4-5.23 5.22-5.23 2.88.08 5.2 2.4 5.2 5.23-.07 2.9-2.4 5.22-5.3 5.22h.02zm23.48 36.27H43.05l-6.95-12 6.95-12.03h13.83l6.95 12zm11.44 22.6c-2.9 0-5.2-2.3-5.2-5.14 0-2.9 2.3-5.22 5.2-5.22 2.9 0 5.22 2.3 5.22 5.22 0 2.84-2.32 5.15-5.22 5.15z" stroke="#000" stroke-opacity="0" fill="#fff"/><use xlink:href="#n" transform="matrix(1,0,0,1,-30,949.0000000000002) translate(19.56790123456789 17.77777777777778)"/><path d="M660 680h100v100H660V680z" stroke="#fff" stroke-opacity="0" fill="#693cc5"/><path d="M721.52 760.9l-2.38-1.26c1.35-2.5 2.24-4.77 3.04-7.53l2.56.76c-.85 2.95-1.8 5.34-3.22 8.03zm2.48-24.4c-.48-7.86-2.7-14.38-7.03-20.9l2.22-1.45c4.6 6.9 6.96 13.86 7.47 22.15zm-17.6-32.2c-2.03-1.5-3.88-2.64-6.15-3.77l1.22-2.38c2.43 1.2 4.38 2.38 6.55 4zM717.33 739.87c-4.42-4.4-9-7.28-14.9-9.34l.85-2.53c6.25 2.2 11.15 5.26 15.85 9.93zM728.32 755.8c-.5-1.34-1.06-2.57-1.67-3.8l2.4-1.2c.68 1.38 1.2 2.56 1.76 4z" stroke="#fff" stroke-opacity="0" fill="#fff"/><path d="M720.76 761.53l-.85-2.52c3.37-1.12 6.05-2.56 8.85-4.75l1.64 2.1c-3.06 2.38-5.98 3.95-9.64 5.18zM678.37 729.33l-.6-2.6c3.1-.75 5.8-1.1 9.02-1.17l.05 2.67c-3 .06-5.55.4-8.48 1.1zM700.24 720.85L698 719.4c2.06-3.35 4.22-5.93 7.16-8.53l1.76 2c-2.75 2.45-4.76 4.86-6.68 7.98zM720.07 705.04l-.9-2.5c2.1-.8 3.95-1.32 6.16-1.77l.5 2.67c-2.07.4-3.8.87-5.76 1.6zM693.66 758.67c-2.28-5.32-3.33-10.2-3.42-16 .05-2.23.3-4.13.83-6.3l.3-1.44 2.66.53-.3 1.47c-.5 1.97-.72 3.7-.77 5.74.06 5.44 1.03 10.04 3.17 15.05z" stroke="#fff" stroke-opacity="0" fill="#fff"/><path d="M710 763.33c-18.4 0-33.33-14.95-33.33-33.3 0-.74 0-1.34.06-2.08.87-14.22 10.07-25.83 23.74-29.9 9-2.67 17.66-1.74 25.8 2.87 16.06 9 21.8 29.3 12.8 45.4-2.27 4.06-4.94 7.2-8.67 10.07-6.14 4.66-12.67 6.93-20.4 6.93zm0-64c-3.13 0-5.8.4-8.73 1.32-12.6 3.8-21.07 14.42-21.87 27.5 0 .67-.07 1.27-.07 1.87 0 16.9 13.74 30.64 30.67 30.64 3.53 0 6.53-.46 9.87-1.67 3.4-1.14 6.06-2.54 8.86-4.75 7.8-6 11.93-14.4 11.93-24.23 0-16.95-13.73-30.7-30.66-30.7z" stroke="#fff" stroke-opacity="0" fill="#fff"/><path d="M713.24 714.57c-3.26 0-5.9-2.64-5.9-5.9 0-3.26 2.64-5.9 5.9-5.9 3.26 0 5.9 2.64 5.9 5.9 0 3.27-2.63 5.9-5.9 5.9zm0-9.13c-1.78 0-3.24 1.45-3.24 3.24 0 1.8 1.46 3.24 3.24 3.24 1.78 0 3.24-1.45 3.24-3.24 0-1.78-1.46-3.24-3.24-3.24zM695.05 733.17c-3.26 0-5.9-2.64-5.9-5.9 0-3.26 2.64-5.9 5.9-5.9 3.26 0 5.9 2.64 5.9 5.9 0 3.26-2.64 5.9-5.9 5.9zm0-9.14c-1.78 0-3.23 1.45-3.23 3.24 0 1.78 1.45 3.23 3.23 3.23 1.8 0 3.24-1.45 3.24-3.23v-.03c0-1.8-1.46-3.25-3.25-3.25zM724.37 750.27c-3.26 0-5.9-2.64-5.92-5.9 0-3.26 2.64-5.9 5.9-5.92 3.26 0 5.9 2.64 5.92 5.9v.02c0 3.26-2.64 5.9-5.9 5.9zm0-9.13c-1.8 0-3.25 1.45-3.25 3.23 0 1.8 1.46 3.24 3.24 3.24 1.78 0 3.24-1.43 3.24-3.23 0-1.78-1.44-3.24-3.23-3.24z" stroke="#fff" stroke-opacity="0" fill="#fff"/><use xlink:href="#o" transform="matrix(1,0,0,1,630,789.0000000000002) translate(25.185185185185183 17.77777777777778)"/><path d="M660 839.56h100v100H660v-100z" stroke="#fff" stroke-opacity="0" stroke-width="2" fill="#3f8624"/><path d="M741.9 892.94c-.38-2.07-2.74-3.54-4.4-4.6-.5-.34-1.92-.88-2.05-1.34 0-.34 0-.67.13-1l1.34-9.55c.4-2.8.77-5.6 1.15-8.48.32-2.54-.9-4.27-3-5.74-4.28-3-9.9-4.2-14.95-5-6.64-1.08-12.46-1.28-19.17-.6-6.07.4-11.1 1.6-16.74 4-2.8 1.33-6.57 3.4-6.06 7 1.28 10.82 2.88 21.64 4.35 32.45.63 4.94 1.33 9.88 1.97 14.82.25 2.07 1.4 3.67 3.32 4.48 4.08 2.2 9.2 2.87 13.86 3.27 6.45.6 11.94.4 18.33-.8 3.83-.67 10.98-1.87 11.62-6.68.77-5.94 1.6-11.88 2.36-17.82l.32-1.8c2.18.53 8.37 1.66 7.6-2.6zm-33.86-34.05c8.06 0 17.2.93 24.35 4.86 1.14.6 3.7 1.94 2.93 3.6-.77 1.6-3.2 2.4-4.67 3-2.17.8-4.15 1.35-6.45 1.82-9.96 2-18.78 2.2-28.87.6-4.54-.47-8.3-1.6-12.4-3.6-.95-.6-2.55-1.54-2.1-2.88.32-.73.83-1.27 1.53-1.67 3.13-2 6-3.2 9.65-3.87 5.5-1.34 10.36-1.94 16.04-1.87zM729 915.1c-.25 1.54-2.8 2.34-4.02 2.74-2.7.93-5.05 1.47-7.86 1.8-6.2.8-11.57.8-17.83 0-3.9-.33-7.16-1.2-10.68-2.93-.96-.4-1.53-1.26-1.6-2.27-1.34-10.6-2.8-21.16-4.28-31.7l-1.53-11.5c3.2 1.75 6.14 2.8 9.72 3.42 3.9.8 7.16 1.2 11.12 1.47 7.67.53 14.25.2 21.85-1.2 4-.6 7.34-1.74 10.92-3.68l-2.82 20.9c-7.15-2.34-13.03-4.68-19.74-7.95-.32-.14-.57-.27-.83-.4-.38-.27-.25-.14-.45-.54-.32-.8-.38-1.34-1.08-2-.64-.47-1.34-.67-2.1-.6-1.67.06-2.95 1.53-2.82 3.2.13 1.6 1.6 2.87 3.26 2.74.44-.07.83-.2 1.34-.4.5-.14.5-.14 1.02.13 6.84 3.34 12.78 5.8 20 8.2 1.02.34 1.02 0 1.02.88-.06.68-.13 1.28-.25 1.95l-.84 6.34zm-20.57-31.58c0 .4-.5.34-.64.14-.2-.27.63-.6.63-.13zm26.26 9.35l.37-2.94c1.34.8 3.58 1.94 4.22 3.4-1.35.54-3.4-.13-4.6-.46z" stroke="#fff" stroke-opacity="0" stroke-width="2" fill="#fff"/><use xlink:href="#p" transform="matrix(1,0,0,1,630,948.5557255622848) translate(20.864197530864203 17.77777777777778)"/><use xlink:href="#q" transform="matrix(1,0,0,1,630,948.5557255622848) translate(83.64197530864197 17.77777777777778)"/><path d="M880 820.44h100v100H880v-100z" stroke="#fff" stroke-opacity="0" stroke-width="2" fill="#d86613"/><path d="M960.67 903.78h-16.43c-.54 0-.97-.27-1.18-.74l-23.26-48.6H910c-.76 0-1.35-.6-1.35-1.33v-14.66c0-.73.6-1.33 1.34-1.33h20.52c.54 0 .97.28 1.18.74l23.15 48.6h5.82c.74 0 1.33.6 1.33 1.34v14.66c0 .74-.6 1.34-1.33 1.34zm-15.58-2.67h14.23v-12H954c-.53 0-.96-.26-1.18-.72l-23.15-48.6h-18.35v12h9.34c.53 0 .96.26 1.22.73z" stroke="#fff" stroke-opacity="0" stroke-width="2" fill="#fff"/><path d="M916.63 903.78H899.3c-.46 0-.87-.25-1.14-.6-.26-.46-.26-.94-.06-1.35l18.15-37.88c.2-.5.67-.77 1.18-.77.53 0 .97.28 1.2.73l8.68 17.87c.22.37.22.77 0 1.18l-9.46 19.97c-.18.53-.65.86-1.2.86zm-15.2-2.68h14.37l8.83-18.64-7.17-14.9z" stroke="#fff" stroke-opacity="0" stroke-width="2" fill="#fff"/><use xlink:href="#r" transform="matrix(1,0,0,1,850,929.4442744377155) translate(39.907407407407405 17.77777777777778)"/><path d="M-140 506a6 6 0 0 1 6-6H54a6 6 0 0 1 6 6v48a6 6 0 0 1-6 6h-188a6 6 0 0 1-6-6z" fill="none"/><use xlink:href="#f" transform="matrix(1,0,0,1,-140,500) translate(57.22222222222223 34.44444444444444)"/><use xlink:href="#s" transform="matrix(1,0,0,1,-140,500) translate(113.14814814814815 34.44444444444444)"/><path d="M440 821.1h100v100H440v-100z" stroke="#fff" stroke-opacity="0" stroke-width="2" fill="#d86613"/><path d="M473.05 869.65c.1.1.2.22.34.3.17.18.36.33.58.48l.15.1.68.35.42.18H475.5l.35.15c.63.23 1.3.5 2.1.76l1.22.33.64.18c3.52.85 6.58 1.23 10.2 1.2 5.5.1 10.15-.8 15.2-2.9 2.16-1.02 3.43-3 3.47-5.38v-19.13c0-.82-.45-1.52-1.2-1.9l-16.57-7.7c-.56-.3-1.2-.3-1.76 0l-16.6 7.7c-.76.38-1.2 1.08-1.2 1.9v19.2c0 1.5.48 2.76 1.45 3.92.06.1.14.17.25.25zm6.8.18l-1.13-.33c-.7-.22-1.3-.45-1.86-.63l-.5-.23-.44-.18-.44-.23-.34-.26-.15-.18-.12-.13-.1-.1c-.53-.64-.8-1.3-.8-2.13v-17.57l14.68 6.9v16.3c-2.92-.05-5.38-.38-8.22-1.05zm24.26-1.4c-4.24 1.8-8.16 2.63-12.8 2.67v-16.08l14.68-6.7v17.08c.04 1.35-.67 2.46-1.87 3.02zM490 839.15l14.75 6.9-14.53 6.5-.07-.07-14.34-6.67z" stroke="#fff" stroke-opacity="0" stroke-width="2" fill="#fff"/><path d="M513.02 858.02l-.7 2.55c5.97 1.77 9.7 4.28 9.7 6.54 0 4.42-13.16 9.35-32.02 9.35-18.86 0-32.03-4.93-32.03-9.34 0-2.25 3.74-4.76 9.7-6.53l-.7-2.55c-7.48 2.2-11.64 5.44-11.64 9.1 0 7.77 17.9 12 34.67 12 16.78 0 34.67-4.23 34.67-12 0-3.66-4.16-6.9-11.65-9.1zM512.95 883.3l-6.2-2.67c-.5-.23-1-.23-1.5 0l-6.34 2.73c-.57.3-.9.83-.9 1.46v6.88l-5.92-2.58c-.5-.25-1-.25-1.5 0l-5.97 2.58v-6.9c0-.66-.36-1.24-.95-1.5l-6.24-2.67c-.45-.23-1-.23-1.5 0l-6.33 2.73c-.6.3-.9.83-.9 1.46v8.1c0 .7.36 1.25 1 1.53l6.2 2.65h.13c.23.1.4.16.68.16.23 0 .45-.03.63-.15l6.04-2.57v6.87c0 .66.36 1.22.95 1.5l6.2 2.67h.08c.23.1.46.15.73.15.23 0 .46-.05.7-.15l6.32-2.73c.6-.3.9-.83.96-1.5v-6.8l5.88 2.57h.18c.23.1.46.16.73.18.22-.02.4-.07.6-.17l6.37-2.65c.6-.28.9-.83.9-1.47v-8.18c0-.66-.36-1.24-1-1.5zm-6.97-.12l3.62 1.57-3.4 1.4-3.53-1.53zm-14.67 8.52l3.63 1.54-3.4 1.34-3.53-1.47zm-14.66-8.52l3.62 1.57-3.4 1.34-3.53-1.48zm-5.35 3.5l4.02 1.68v5.6l-4.03-1.7zm6.7 7.27v-5.34l3.98-1.63v5.33zm7.96 1.2l4.03 1.73v5.56l-4.04-1.72zm6.66 7.3v-5.35l4.03-1.64v5.33zm8-15.78l4 1.7v5.6l-4-1.72zm6.67 7.3v-5.33l4.02-1.67v5.33z" stroke="#fff" stroke-opacity="0" stroke-width="2" fill="#fff"/><use xlink:href="#t" transform="matrix(1,0,0,1,410,930.1106860942891) translate(13.827160493827165 17.77777777777778)"/><use xlink:href="#u" transform="matrix(1,0,0,1,410,930.1106860942891) translate(69.75308641975309 17.77777777777778)"/><path d="M220 820.9h100v100H220v-100z" stroke="#fff" stroke-opacity="0" stroke-width="2" fill="#d86613"/><path d="M300.67 904.22h-16.43c-.54 0-.97-.26-1.18-.73l-23.26-48.6H250c-.76 0-1.35-.6-1.35-1.35V838.9c0-.75.6-1.35 1.34-1.35h20.52c.54 0 .97.27 1.18.74l23.15 48.6h5.82c.74 0 1.33.6 1.33 1.32v14.67c0 .72-.6 1.32-1.33 1.32zm-15.58-2.67h14.23v-12H294c-.54 0-.96-.26-1.18-.73l-23.15-48.6h-18.35v12h9.34c.53 0 .96.27 1.22.74z" stroke="#fff" stroke-opacity="0" stroke-width="2" fill="#fff"/><path d="M256.63 904.22H239.3c-.46 0-.87-.24-1.14-.6-.26-.45-.26-.94-.06-1.35l18.15-37.88c.2-.5.68-.78 1.18-.78.53 0 .97.3 1.2.73l8.68 17.87c.22.36.22.77 0 1.17l-9.46 19.97c-.18.53-.65.85-1.2.85zm-15.2-2.68h14.37l8.82-18.63-7.16-14.9z" stroke="#fff" stroke-opacity="0" stroke-width="2" fill="#fff"/><use xlink:href="#v" transform="matrix(1,0,0,1,190,929.8885488754312) translate(25.74074074074074 17.77777777777778)"/><use xlink:href="#w" transform="matrix(1,0,0,1,190,929.8885488754312) translate(78.76543209876543 17.77777777777778)"/><path d="M220 680.9h100v100H220v-100z" stroke="#fff" stroke-opacity="0" fill="#693cc5"/><path d="M284.68 762.9c-.3 0-.54-.12-.8-.25-.35-.26-.55-.64-.55-1.1v-61.34c0-.43.24-.88.65-1.14.4-.25.9-.25 1.32-.06l17.35 8.5c.46.2.74.65.74 1.17v47.13c0 .64-.35 1.15-.93 1.34l-17.33 5.77h-.46zm1.34-60.5v57.3l14.66-4.86V709.5zM255.32 762.9h-.42l-17.33-5.76c-.56-.2-.92-.77-.9-1.34v-47.13c0-.52.28-.96.74-1.16l17.34-8.5c.44-.2.92-.2 1.34.06.4.26.63.7.63 1.15v61.36c0 .45-.2.83-.56 1.1-.23.18-.5.24-.82.24zm-16-8l14.68 4.87V702.4l-14.67 7.16z" stroke="#fff" stroke-opacity="0" fill="#fff"/><path d="M283.33 717.55h-4v-2.66h4zm-8 0h-4v-2.66h4zm-7.98 0h-4v-2.66h4zm-8 0h-4.02v-2.66h4zM283.33 746.9h-4v-2.68h4zm-8 0h-4v-2.68h4zm-7.98 0h-4v-2.68h4zm-8 0h-4.02v-2.68h4zM264.15 735.48l-5-4.28c-.58-.48-.64-1.33-.17-1.9l.15-.13 5-4.28 1.74 2-3.82 3.32 3.82 3.26zM275.87 735.48l-1.74-2.03 3.8-3.23-3.8-3.26 1.72-2.07 5 4.25c.58.48.64 1.33.17 1.9-.05.04-.1.1-.15.13z" stroke="#fff" stroke-opacity="0" fill="#fff"/><path d="M266.08 738.28l5.3-15.67 2.52.87-5.3 15.67-2.52-.86z" stroke="#fff" stroke-opacity="0" stroke-width=".32" fill="#fff"/><use xlink:href="#x" transform="matrix(1,0,0,1,190,789.8885488754312) translate(62.098765432098766 17.77777777777778)"/><path d="M440 681.1h100v100H440v-100z" stroke="#fff" stroke-opacity="0" fill="#693cc5"/><path d="M504.68 763.13c-.3 0-.54-.13-.8-.26-.35-.25-.55-.64-.55-1.1v-61.33c0-.45.24-.9.65-1.16.4-.25.9-.25 1.32-.06l17.35 8.52c.46.2.74.64.74 1.15V756c0 .64-.35 1.15-.93 1.35l-17.33 5.76h-.46zm1.34-60.52v57.33l14.66-4.87v-45.34zM475.32 763.13h-.42l-17.33-5.77c-.56-.2-.93-.77-.9-1.34V708.9c0-.52.27-.97.74-1.16l17.34-8.52c.44-.2.92-.2 1.34.06.4.26.63.7.63 1.16v61.34c0 .45-.2.83-.56 1.1-.24.18-.5.25-.82.25zm-16-8l14.68 4.86v-57.4l-14.67 7.18z" stroke="#fff" stroke-opacity="0" fill="#fff"/><path d="M503.33 717.78h-4v-2.67h4zm-8 0h-4v-2.67h4zm-7.98 0h-4v-2.67h4zm-8 0h-4.02v-2.67h4zM503.33 747.1h-4v-2.66h4zm-8 0h-4v-2.66h4zm-7.98 0h-4v-2.66h4zm-8 0h-4.02v-2.66h4zM484.15 735.7l-5-4.28c-.58-.48-.64-1.32-.17-1.88l.15-.15 5-4.3 1.74 2.03-3.82 3.32 3.82 3.26zM495.87 735.7l-1.74-2.03 3.8-3.22-3.8-3.26 1.72-2.1 5 4.28c.58.47.64 1.32.17 1.88l-.15.14z" stroke="#fff" stroke-opacity="0" fill="#fff"/><path d="M486.08 738.5l5.3-15.67 2.52.86-5.3 15.66-2.52-.86z" stroke="#fff" stroke-opacity="0" stroke-width=".32" fill="#fff"/><use xlink:href="#x" transform="matrix(1,0,0,1,410,790.1106860942893) translate(62.098765432098766 17.77777777777778)"/><path d="M880 680.9h100v100H880v-100z" stroke="#fff" stroke-opacity="0" fill="#693cc5"/><path d="M944.68 762.9c-.3 0-.54-.12-.78-.25-.37-.26-.57-.64-.57-1.1v-61.34c0-.43.24-.88.64-1.14.4-.25.9-.25 1.33-.06l17.35 8.5c.46.2.74.65.74 1.17v47.13c0 .64-.35 1.15-.93 1.34l-17.33 5.77h-.46zm1.34-60.5v57.3l14.66-4.86V709.5zM915.32 762.9h-.42l-17.33-5.76c-.57-.2-.93-.77-.9-1.34v-47.13c0-.52.28-.96.74-1.16l17.34-8.5c.44-.2.92-.2 1.35.06.4.26.6.7.6 1.15v61.36c0 .45-.2.83-.56 1.1-.24.18-.5.24-.82.24zm-16-8l14.68 4.87V702.4l-14.67 7.16z" stroke="#fff" stroke-opacity="0" fill="#fff"/><path d="M943.33 717.55h-4v-2.66h4zm-8 0h-4v-2.66h4zm-8 0h-4v-2.66h4zm-8 0h-4v-2.66h4zM943.33 746.9h-4v-2.68h4zm-8 0h-4v-2.68h4zm-8 0h-4v-2.68h4zm-8 0h-4v-2.68h4zM924.15 735.48l-5-4.28c-.58-.48-.64-1.33-.17-1.9l.15-.13 5-4.28 1.74 2-3.82 3.32 3.82 3.26zM935.87 735.48l-1.74-2.03 3.8-3.23-3.8-3.26 1.72-2.07 5 4.25c.58.48.64 1.33.17 1.9-.05.04-.1.1-.15.13z" stroke="#fff" stroke-opacity="0" fill="#fff"/><path d="M926.08 738.28l5.3-15.67 2.52.87-5.3 15.67-2.52-.86z" stroke="#fff" stroke-opacity="0" stroke-width=".32" fill="#fff"/><use xlink:href="#x" transform="matrix(1,0,0,1,850,789.8885488754312) translate(62.098765432098766 17.77777777777778)"/><path d="M100.5 730H154a6 6 0 0 1 6 6v268.9a6 6 0 0 0 6 6h39.5" stroke="#3a414a" fill="none"/><path d="M100.5 730.48h-.5v-.96h.5z" stroke="#3a414a" stroke-width=".05" fill="#3a414a"/><path d="M219 1010.9l-13 7.5v-15z" stroke="#3a414a" fill="#3a414a"/><path d="M334.5 730.9H374a6 6 0 0 1 6 6v128.2a6 6 0 0 0 6 6h39.5" stroke="#3a414a" fill="none"/><path d="M321 730.9l13-7.5v15zM439 871.1l-13 7.5v-15z" stroke="#3a414a" fill="#3a414a"/><path d="M692.45 441.78H671.7c-.95 0-1.7-.76-1.7-1.7v-2.54c0-9.48 6.24-17.44 15.5-19.67.4-.1.8-.04 1.2.17 2.73 1.46 5.68 1.46 8.4 0 .4-.2.8-.26 1.22-.17 2.42.6 4.43 1.46 6.5 2.86l-1.9 2.82c-1.55-1-3-1.68-4.8-2.15-3.45 1.58-7 1.58-10.44 0-7.38 2.06-12.27 8.5-12.27 16.14v.84h19.05z" stroke="#fff" stroke-opacity="0" fill="#232f3e"/><path d="M690.88 422.46c-6.17 0-11.17-5-11.17-11.14 0-6.16 5-11.15 11.18-11.15 6.16-.07 11.2 4.88 11.26 11 .04 4.27-2.1 7.9-5.86 9.9-1.73.97-3.4 1.4-5.4 1.4zm0-18.9c-4.3 0-7.83 3.45-7.85 7.76 0 2.92 1.48 5.4 4.06 6.8 2.43 1.3 5.12 1.3 7.57 0 2.6-1.4 4.1-3.95 4.06-6.92-.05-4.25-3.57-7.66-7.85-7.62zM748.32 441.78h-20.75v-3.4h19.04v-.83c0-7.67-4.9-14.1-12.25-16.17-3.45 1.6-7 1.6-10.46 0-1.82.5-3.3 1.2-4.84 2.28l-1.94-2.8c2.07-1.44 4.08-2.35 6.5-2.97.44-.1.86-.06 1.26.16 2.7 1.46 5.7 1.46 8.42 0 .4-.22.8-.27 1.2-.17 9.25 2.22 15.5 10.16 15.5 19.65v2.53c0 .94-.76 1.68-1.68 1.7z" stroke="#fff" stroke-opacity="0" fill="#232f3e"/><path d="M729.08 422.46c-6.2 0-11.23-5.05-11.23-11.25s5.06-11.2 11.28-11.2c6.2 0 11.23 5.05 11.23 11.25 0 4.23-2.14 7.82-5.85 9.84-1.75.94-3.44 1.36-5.42 1.36zm0-18.9c-4.3 0-7.8 3.45-7.83 7.76-.02 2.92 1.46 5.42 4.05 6.8 2.43 1.3 5.13 1.3 7.6 0 2.62-1.4 4.13-3.97 4.08-6.95-.1-4.27-3.62-7.7-7.9-7.6zM737.2 480h-54.46c-.92 0-1.67-.75-1.67-1.7v-3.6c-.06-13.1 8.6-24.1 21.32-27.18.46-.13.86-.06 1.27.13 4.04 2.18 8.5 2.18 12.6 0 .34-.2.75-.26 1.2-.13 12.78 3.06 21.45 14.06 21.4 27.18v3.6c0 .95-.76 1.7-1.68 1.7zm-52.72-3.38h50.97v-1.93c0-11.26-7.28-20.74-18.2-23.66-4.8 2.3-9.83 2.3-14.62 0-10.93 2.92-18.15 12.4-18.15 23.65z" stroke="#fff" stroke-opacity="0" fill="#232f3e"/><path d="M710.02 452.64c-2.7 0-5-.58-7.4-1.86-7.4-4.07-10.13-13.34-6.1-20.77 4.1-7.4 13.38-10.12 20.83-6.08 7.42 4.07 10.15 13.34 6.1 20.77-1.47 2.68-3.4 4.6-6.1 6.08-2.36 1.28-4.66 1.86-7.33 1.86zm0-26.76c-4.44-.06-8.27 2.17-10.42 6.1-3.07 5.64-.98 12.74 4.7 15.83 3.67 1.97 7.72 1.97 11.4 0 3.95-2.13 6.22-5.95 6.16-10.42-.1-6.42-5.4-11.6-11.84-11.5z" stroke="#fff" stroke-opacity="0" fill="#232f3e"/><path d="M748.78 441.78h-39.72c-.68 0-1.23-.54-1.23-1.23v-2.64c-.04-9.53 6.3-17.56 15.56-19.8.33-.1.63-.06.92.08 2.95 1.6 6.2 1.6 9.2 0 .25-.14.54-.2.88-.1 9.32 2.24 15.64 10.27 15.6 19.83v2.65c0 .7-.55 1.23-1.22 1.23zm-38.46-2.46h37.2v-1.4c0-8.22-5.32-15.13-13.3-17.27-3.5 1.7-7.16 1.7-10.66 0-7.97 2.14-13.24 9.05-13.24 17.26z" stroke="#fff" stroke-opacity="0" stroke-width=".73" fill="#fff" fill-opacity="0"/><path d="M710.94 441.78h-39.72c-.67 0-1.22-.54-1.22-1.23v-2.64c-.04-9.53 6.28-17.56 15.56-19.8.34-.1.63-.06.93.08 2.94 1.6 6.18 1.6 9.18 0 .25-.14.55-.2.9-.1 9.3 2.24 15.63 10.27 15.6 19.83v2.65c0 .7-.56 1.23-1.24 1.23zm-38.45-2.46h37.18v-1.4c0-8.22-5.3-15.13-13.28-17.27-3.5 1.7-7.17 1.7-10.67 0-7.97 2.14-13.24 9.05-13.24 17.26z" stroke="#fff" stroke-opacity="0" stroke-width=".73" fill="#fff" fill-opacity="0"/><use xlink:href="#y" transform="matrix(1,0,0,1,640,489) translate(41.04938271604939 17.77777777777778)"/><path d="M710 604.5v-70" stroke="#3a414a" fill="none"/><path d="M710 618l-7.5-13h15zM710 521l7.5 13h-15z" stroke="#3a414a" fill="#3a414a"/><path d="M710 604.5V585a6 6 0 0 0-6-6H496a6 6 0 0 0-6 6v19.5" stroke="#3a414a" fill="none"/><path d="M710 618l-7.5-13h15zM490 618l-7.5-13h15z" stroke="#3a414a" fill="#3a414a"/><path d="M930 604.5V585a6 6 0 0 0-6-6H716a6 6 0 0 0-6 6v19.5" stroke="#3a414a" fill="none"/><path d="M930 618l-7.5-13h15zM710 618l-7.5-13h15z" stroke="#3a414a" fill="#3a414a"/><path d="M270 604.5V585a6 6 0 0 1 6-6h428a6 6 0 0 1 6 6v19.5" stroke="#3a414a" fill="none"/><path d="M270 618l-7.5-13h15zM710 618l-7.5-13h15z" stroke="#3a414a" fill="#3a414a"/><defs><path fill="#5a6c86" d="M212-179c-10-28-35-45-73-45-59 0-87 40-87 99 0 60 29 101 89 101 43 0 62-24 78-52l27 14C228-24 195 4 139 4 59 4 22-46 18-125c-6-104 99-153 187-111 19 9 31 26 39 46" id="z"/><path fill="#5a6c86" d="M106-169C34-169 62-67 57 0H25v-261h32l-1 103c12-21 28-36 61-36 89 0 53 116 60 194h-32v-121c2-32-8-49-39-48" id="A"/><path fill="#5a6c86" d="M141-36C126-15 110 5 73 4 37 3 15-17 15-53c-1-64 63-63 125-63 3-35-9-54-41-54-24 1-41 7-42 31l-33-3c5-37 33-52 76-52 45 0 72 20 72 64v82c-1 20 7 32 28 27v20c-31 9-61-2-59-35zM48-53c0 20 12 33 32 33 41-3 63-29 60-74-43 2-92-5-92 41" id="B"/><path fill="#5a6c86" d="M59-47c-2 24 18 29 38 22v24C64 9 27 4 27-40v-127H5v-23h24l9-43h21v43h35v23H59v120" id="C"/><path fill="#5a6c86" d="M115-194c53 0 69 39 70 98 0 66-23 100-70 100C84 3 66-7 56-30L54 0H23l1-261h32v101c10-23 28-34 59-34zm-8 174c40 0 45-34 45-75 0-40-5-75-45-74-42 0-51 32-51 76 0 43 10 73 51 73" id="D"/><path fill="#5a6c86" d="M100-194c62-1 85 37 85 99 1 63-27 99-86 99S16-35 15-95c0-66 28-99 85-99zM99-20c44 1 53-31 53-75 0-43-8-75-51-75s-53 32-53 75 10 74 51 75" id="E"/><g id="a"><use transform="matrix(0.06234567901234567,0,0,0.06234567901234567,0,0)" xlink:href="#z"/><use transform="matrix(0.06234567901234567,0,0,0.06234567901234567,16.147530864197527,0)" xlink:href="#A"/><use transform="matrix(0.06234567901234567,0,0,0.06234567901234567,28.61666666666666,0)" xlink:href="#B"/><use transform="matrix(0.06234567901234567,0,0,0.06234567901234567,41.08580246913579,0)" xlink:href="#C"/><use transform="matrix(0.06234567901234567,0,0,0.06234567901234567,47.320370370370355,0)" xlink:href="#D"/><use transform="matrix(0.06234567901234567,0,0,0.06234567901234567,59.78950617283949,0)" xlink:href="#E"/><use transform="matrix(0.06234567901234567,0,0,0.06234567901234567,72.25864197530862,0)" xlink:href="#C"/></g><path fill="#5a6c86" d="M30-248c118-7 216 8 213 122C240-48 200 0 122 0H30v-248zM63-27c89 8 146-16 146-99s-60-101-146-95v194" id="F"/><g id="b"><use transform="matrix(0.06234567901234567,0,0,0.06234567901234567,0,0)" xlink:href="#F"/><use transform="matrix(0.06234567901234567,0,0,0.06234567901234567,16.147530864197527,0)" xlink:href="#B"/><use transform="matrix(0.06234567901234567,0,0,0.06234567901234567,28.61666666666666,0)" xlink:href="#C"/><use transform="matrix(0.06234567901234567,0,0,0.06234567901234567,34.85123456790123,0)" xlink:href="#B"/></g><path fill="#5a6c86" d="M233-177c-1 41-23 64-60 70L243 0h-38l-65-103H63V0H30v-248c88 3 205-21 203 71zM63-129c60-2 137 13 137-47 0-61-80-42-137-45v92" id="G"/><path fill="#5a6c86" d="M100-194c63 0 86 42 84 106H49c0 40 14 67 53 68 26 1 43-12 49-29l28 8c-11 28-37 45-77 45C44 4 14-33 15-96c1-61 26-98 85-98zm52 81c6-60-76-77-97-28-3 7-6 17-6 28h103" id="H"/><path fill="#5a6c86" d="M177-190C167-65 218 103 67 71c-23-6-38-20-44-43l32-5c15 47 100 32 89-28v-30C133-14 115 1 83 1 29 1 15-40 15-95c0-56 16-97 71-98 29-1 48 16 59 35 1-10 0-23 2-32h30zM94-22c36 0 50-32 50-73 0-42-14-75-50-75-39 0-46 34-46 75s6 73 46 73" id="I"/><path fill="#5a6c86" d="M24-231v-30h32v30H24zM24 0v-190h32V0H24" id="J"/><path fill="#5a6c86" d="M117-194c89-4 53 116 60 194h-32v-121c0-31-8-49-39-48C34-167 62-67 57 0H25l-1-190h30c1 10-1 24 2 32 11-22 29-35 61-36" id="K"/><path fill="#5a6c86" d="M16-82v-28h88v28H16" id="L"/><path fill="#5a6c86" d="M24 0v-261h32V0H24" id="M"/><g id="c"><use transform="matrix(0.06234567901234567,0,0,0.06234567901234567,0,0)" xlink:href="#G"/><use transform="matrix(0.06234567901234567,0,0,0.06234567901234567,16.147530864197527,0)" xlink:href="#H"/><use transform="matrix(0.06234567901234567,0,0,0.06234567901234567,28.61666666666666,0)" xlink:href="#I"/><use transform="matrix(0.06234567901234567,0,0,0.06234567901234567,41.08580246913579,0)" xlink:href="#J"/><use transform="matrix(0.06234567901234567,0,0,0.06234567901234567,46.0111111111111,0)" xlink:href="#E"/><use transform="matrix(0.06234567901234567,0,0,0.06234567901234567,58.48024691358023,0)" xlink:href="#K"/><use transform="matrix(0.06234567901234567,0,0,0.06234567901234567,70.94938271604937,0)" xlink:href="#L"/><use transform="matrix(0.06234567901234567,0,0,0.06234567901234567,78.3685185185185,0)" xlink:href="#C"/><use transform="matrix(0.06234567901234567,0,0,0.06234567901234567,84.60308641975307,0)" xlink:href="#E"/><use transform="matrix(0.06234567901234567,0,0,0.06234567901234567,97.0722222222222,0)" xlink:href="#L"/><use transform="matrix(0.06234567901234567,0,0,0.06234567901234567,104.49135802469132,0)" xlink:href="#z"/><use transform="matrix(0.06234567901234567,0,0,0.06234567901234567,120.63888888888886,0)" xlink:href="#M"/><use transform="matrix(0.06234567901234567,0,0,0.06234567901234567,125.56419753086416,0)" xlink:href="#J"/><use transform="matrix(0.06234567901234567,0,0,0.06234567901234567,130.48950617283947,0)" xlink:href="#H"/><use transform="matrix(0.06234567901234567,0,0,0.06234567901234567,142.9586419753086,0)" xlink:href="#K"/><use transform="matrix(0.06234567901234567,0,0,0.06234567901234567,155.42777777777775,0)" xlink:href="#C"/></g><g id="d"><use transform="matrix(0.06172839506172839,0,0,0.06172839506172839,0,0)" xlink:href="#z"/><use transform="matrix(0.06172839506172839,0,0,0.06172839506172839,15.987654320987653,0)" xlink:href="#M"/><use transform="matrix(0.06172839506172839,0,0,0.06172839506172839,20.864197530864196,0)" xlink:href="#J"/><use transform="matrix(0.06172839506172839,0,0,0.06172839506172839,25.74074074074074,0)" xlink:href="#H"/><use transform="matrix(0.06172839506172839,0,0,0.06172839506172839,38.08641975308642,0)" xlink:href="#K"/><use transform="matrix(0.06172839506172839,0,0,0.06172839506172839,50.432098765432094,0)" xlink:href="#C"/></g><g id="e"><use transform="matrix(0.05,0,0,0.05,0,0)" xlink:href="#G"/><use transform="matrix(0.05,0,0,0.05,12.950000000000001,0)" xlink:href="#H"/><use transform="matrix(0.05,0,0,0.05,22.950000000000003,0)" xlink:href="#I"/><use transform="matrix(0.05,0,0,0.05,32.95,0)" xlink:href="#J"/><use transform="matrix(0.05,0,0,0.05,36.900000000000006,0)" xlink:href="#E"/><use transform="matrix(0.05,0,0,0.05,46.900000000000006,0)" xlink:href="#K"/><use transform="matrix(0.05,0,0,0.05,56.900000000000006,0)" xlink:href="#L"/><use transform="matrix(0.05,0,0,0.05,62.85,0)" xlink:href="#C"/><use transform="matrix(0.05,0,0,0.05,67.85000000000001,0)" xlink:href="#E"/><use transform="matrix(0.05,0,0,0.05,77.85000000000001,0)" xlink:href="#L"/><use transform="matrix(0.05,0,0,0.05,83.80000000000001,0)" xlink:href="#G"/><use transform="matrix(0.05,0,0,0.05,96.75000000000001,0)" xlink:href="#H"/><use transform="matrix(0.05,0,0,0.05,106.75,0)" xlink:href="#I"/><use transform="matrix(0.05,0,0,0.05,116.75,0)" xlink:href="#J"/><use transform="matrix(0.05,0,0,0.05,120.7,0)" xlink:href="#E"/><use transform="matrix(0.05,0,0,0.05,130.70000000000002,0)" xlink:href="#K"/></g><path fill="#3a414a" d="M205 0l-28-72H64L36 0H1l101-248h38L239 0h-34zm-38-99l-47-123c-12 45-31 82-46 123h93" id="N"/><path fill="#3a414a" d="M266 0h-40l-56-210L115 0H75L2-248h35L96-30l15-64 43-154h32l59 218 59-218h35" id="O"/><path fill="#3a414a" d="M185-189c-5-48-123-54-124 2 14 75 158 14 163 119 3 78-121 87-175 55-17-10-28-26-33-46l33-7c5 56 141 63 141-1 0-78-155-14-162-118-5-82 145-84 179-34 5 7 8 16 11 25" id="P"/><g id="f"><use transform="matrix(0.06172839506172839,0,0,0.06172839506172839,0,0)" xlink:href="#N"/><use transform="matrix(0.06172839506172839,0,0,0.06172839506172839,14.012345679012345,0)" xlink:href="#O"/><use transform="matrix(0.06172839506172839,0,0,0.06172839506172839,34.938271604938265,0)" xlink:href="#P"/></g><path fill="#3a414a" d="M212-179c-10-28-35-45-73-45-59 0-87 40-87 99 0 60 29 101 89 101 43 0 62-24 78-52l27 14C228-24 195 4 139 4 59 4 22-46 18-125c-6-104 99-153 187-111 19 9 31 26 39 46" id="Q"/><path fill="#3a414a" d="M30-248c118-7 216 8 213 122C240-48 200 0 122 0H30v-248zM63-27c89 8 146-16 146-99s-60-101-146-95v194" id="R"/><path fill="#3a414a" d="M194 0L95-120 63-95V0H30v-248h33v124l119-124h40L117-140 236 0h-42" id="S"/><g id="g"><use transform="matrix(0.06172839506172839,0,0,0.06172839506172839,0,0)" xlink:href="#Q"/><use transform="matrix(0.06172839506172839,0,0,0.06172839506172839,15.987654320987653,0)" xlink:href="#R"/><use transform="matrix(0.06172839506172839,0,0,0.06172839506172839,31.975308641975307,0)" xlink:href="#S"/></g><path fill="#3a414a" d="M233-177c-1 41-23 64-60 70L243 0h-38l-65-103H63V0H30v-248c88 3 205-21 203 71zM63-129c60-2 137 13 137-47 0-61-80-42-137-45v92" id="T"/><path fill="#3a414a" d="M100-194c63 0 86 42 84 106H49c0 40 14 67 53 68 26 1 43-12 49-29l28 8c-11 28-37 45-77 45C44 4 14-33 15-96c1-61 26-98 85-98zm52 81c6-60-76-77-97-28-3 7-6 17-6 28h103" id="U"/><path fill="#3a414a" d="M177-190C167-65 218 103 67 71c-23-6-38-20-44-43l32-5c15 47 100 32 89-28v-30C133-14 115 1 83 1 29 1 15-40 15-95c0-56 16-97 71-98 29-1 48 16 59 35 1-10 0-23 2-32h30zM94-22c36 0 50-32 50-73 0-42-14-75-50-75-39 0-46 34-46 75s6 73 46 73" id="V"/><path fill="#3a414a" d="M24-231v-30h32v30H24zM24 0v-190h32V0H24" id="W"/><path fill="#3a414a" d="M100-194c62-1 85 37 85 99 1 63-27 99-86 99S16-35 15-95c0-66 28-99 85-99zM99-20c44 1 53-31 53-75 0-43-8-75-51-75s-53 32-53 75 10 74 51 75" id="X"/><path fill="#3a414a" d="M117-194c89-4 53 116 60 194h-32v-121c0-31-8-49-39-48C34-167 62-67 57 0H25l-1-190h30c1 10-1 24 2 32 11-22 29-35 61-36" id="Y"/><path fill="#3a414a" d="M141-36C126-15 110 5 73 4 37 3 15-17 15-53c-1-64 63-63 125-63 3-35-9-54-41-54-24 1-41 7-42 31l-33-3c5-37 33-52 76-52 45 0 72 20 72 64v82c-1 20 7 32 28 27v20c-31 9-61-2-59-35zM48-53c0 20 12 33 32 33 41-3 63-29 60-74-43 2-92-5-92 41" id="Z"/><path fill="#3a414a" d="M24 0v-261h32V0H24" id="aa"/><g id="h"><use transform="matrix(0.06172839506172839,0,0,0.06172839506172839,0,0)" xlink:href="#T"/><use transform="matrix(0.06172839506172839,0,0,0.06172839506172839,15.987654320987653,0)" xlink:href="#U"/><use transform="matrix(0.06172839506172839,0,0,0.06172839506172839,28.333333333333332,0)" xlink:href="#V"/><use transform="matrix(0.06172839506172839,0,0,0.06172839506172839,40.67901234567901,0)" xlink:href="#W"/><use transform="matrix(0.06172839506172839,0,0,0.06172839506172839,45.55555555555556,0)" xlink:href="#X"/><use transform="matrix(0.06172839506172839,0,0,0.06172839506172839,57.901234567901234,0)" xlink:href="#Y"/><use transform="matrix(0.06172839506172839,0,0,0.06172839506172839,70.24691358024691,0)" xlink:href="#Z"/><use transform="matrix(0.06172839506172839,0,0,0.06172839506172839,82.5925925925926,0)" xlink:href="#aa"/></g><path fill="#3a414a" d="M30 0v-248h33v221h125V0H30" id="ab"/><path fill="#3a414a" d="M210-169c-67 3-38 105-44 169h-31v-121c0-29-5-50-35-48C34-165 62-65 56 0H25l-1-190h30c1 10-1 24 2 32 10-44 99-50 107 0 11-21 27-35 58-36 85-2 47 119 55 194h-31v-121c0-29-5-49-35-48" id="ac"/><path fill="#3a414a" d="M115-194c53 0 69 39 70 98 0 66-23 100-70 100C84 3 66-7 56-30L54 0H23l1-261h32v101c10-23 28-34 59-34zm-8 174c40 0 45-34 45-75 0-40-5-75-45-74-42 0-51 32-51 76 0 43 10 73 51 73" id="ad"/><path fill="#3a414a" d="M85-194c31 0 48 13 60 33l-1-100h32l1 261h-30c-2-10 0-23-3-31C134-8 116 4 85 4 32 4 16-35 15-94c0-66 23-100 70-100zm9 24c-40 0-46 34-46 75 0 40 6 74 45 74 42 0 51-32 51-76 0-42-9-74-50-73" id="ae"/><path fill="#3a414a" d="M135-143c-3-34-86-38-87 0 15 53 115 12 119 90S17 21 10-45l28-5c4 36 97 45 98 0-10-56-113-15-118-90-4-57 82-63 122-42 12 7 21 19 24 35" id="af"/><g id="i"><use transform="matrix(0.06172839506172839,0,0,0.06172839506172839,0,0)" xlink:href="#ab"/><use transform="matrix(0.06172839506172839,0,0,0.06172839506172839,12.345679012345679,0)" xlink:href="#Z"/><use transform="matrix(0.06172839506172839,0,0,0.06172839506172839,24.691358024691358,0)" xlink:href="#ac"/><use transform="matrix(0.06172839506172839,0,0,0.06172839506172839,43.148148148148145,0)" xlink:href="#ad"/><use transform="matrix(0.06172839506172839,0,0,0.06172839506172839,55.49382716049382,0)" xlink:href="#ae"/><use transform="matrix(0.06172839506172839,0,0,0.06172839506172839,67.8395061728395,0)" xlink:href="#Z"/><use transform="matrix(0.06172839506172839,0,0,0.06172839506172839,80.18518518518519,0)" xlink:href="#af"/></g><path fill="#3a414a" d="M160-131c35 5 61 23 61 61C221 17 115-2 30 0v-248c76 3 177-17 177 60 0 33-19 50-47 57zm-97-11c50-1 110 9 110-42 0-47-63-36-110-37v79zm0 115c55-2 124 14 124-45 0-56-70-42-124-44v89" id="ag"/><path fill="#3a414a" d="M114-163C36-179 61-72 57 0H25l-1-190h30c1 12-1 29 2 39 6-27 23-49 58-41v29" id="ah"/><path fill="#3a414a" d="M96-169c-40 0-48 33-48 73s9 75 48 75c24 0 41-14 43-38l32 2c-6 37-31 61-74 61-59 0-76-41-82-99-10-93 101-131 147-64 4 7 5 14 7 22l-32 3c-4-21-16-35-41-35" id="ai"/><path fill="#3a414a" d="M143 0L79-87 56-68V0H24v-261h32v163l83-92h37l-77 82L181 0h-38" id="aj"/><g id="j"><use transform="matrix(0.06172839506172839,0,0,0.06172839506172839,0,0)" xlink:href="#ag"/><use transform="matrix(0.06172839506172839,0,0,0.06172839506172839,14.814814814814813,0)" xlink:href="#U"/><use transform="matrix(0.06172839506172839,0,0,0.06172839506172839,27.160493827160494,0)" xlink:href="#ae"/><use transform="matrix(0.06172839506172839,0,0,0.06172839506172839,39.50617283950617,0)" xlink:href="#ah"/><use transform="matrix(0.06172839506172839,0,0,0.06172839506172839,46.85185185185185,0)" xlink:href="#X"/><use transform="matrix(0.06172839506172839,0,0,0.06172839506172839,59.197530864197525,0)" xlink:href="#ai"/><use transform="matrix(0.06172839506172839,0,0,0.06172839506172839,70.30864197530863,0)" xlink:href="#aj"/></g><path fill="#3a414a" d="M106-169C34-169 62-67 57 0H25v-261h32l-1 103c12-21 28-36 61-36 89 0 53 116 60 194h-32v-121c2-32-8-49-39-48" id="ak"/><path fill="#3a414a" d="M59-47c-2 24 18 29 38 22v24C64 9 27 4 27-40v-127H5v-23h24l9-43h21v43h35v23H59v120" id="al"/><g id="k"><use transform="matrix(0.06172839506172839,0,0,0.06172839506172839,0,0)" xlink:href="#Q"/><use transform="matrix(0.06172839506172839,0,0,0.06172839506172839,15.987654320987653,0)" xlink:href="#ak"/><use transform="matrix(0.06172839506172839,0,0,0.06172839506172839,28.333333333333332,0)" xlink:href="#Z"/><use transform="matrix(0.06172839506172839,0,0,0.06172839506172839,40.67901234567901,0)" xlink:href="#al"/></g><path fill="#3a414a" d="M197 0v-115H63V0H30v-248h33v105h134v-105h34V0h-34" id="am"/><path fill="#3a414a" d="M179-190L93 31C79 59 56 82 12 73V49c39 6 53-20 64-50L1-190h34L92-34l54-156h33" id="an"/><g id="l"><use transform="matrix(0.06172839506172839,0,0,0.06172839506172839,0,0)" xlink:href="#am"/><use transform="matrix(0.06172839506172839,0,0,0.06172839506172839,15.987654320987653,0)" xlink:href="#W"/><use transform="matrix(0.06172839506172839,0,0,0.06172839506172839,20.864197530864196,0)" xlink:href="#af"/><use transform="matrix(0.06172839506172839,0,0,0.06172839506172839,31.975308641975307,0)" xlink:href="#al"/><use transform="matrix(0.06172839506172839,0,0,0.06172839506172839,38.148148148148145,0)" xlink:href="#X"/><use transform="matrix(0.06172839506172839,0,0,0.06172839506172839,50.49382716049382,0)" xlink:href="#ah"/><use transform="matrix(0.06172839506172839,0,0,0.06172839506172839,57.8395061728395,0)" xlink:href="#an"/></g><g id="m"><use transform="matrix(0.06172839506172839,0,0,0.06172839506172839,0,0)" xlink:href="#R"/><use transform="matrix(0.06172839506172839,0,0,0.06172839506172839,15.987654320987653,0)" xlink:href="#an"/><use transform="matrix(0.06172839506172839,0,0,0.06172839506172839,27.098765432098766,0)" xlink:href="#Y"/><use transform="matrix(0.06172839506172839,0,0,0.06172839506172839,39.44444444444444,0)" xlink:href="#Z"/><use transform="matrix(0.06172839506172839,0,0,0.06172839506172839,51.79012345679012,0)" xlink:href="#ac"/><use transform="matrix(0.06172839506172839,0,0,0.06172839506172839,70.24691358024691,0)" xlink:href="#X"/><use transform="matrix(0.06172839506172839,0,0,0.06172839506172839,82.5925925925926,0)" xlink:href="#R"/><use transform="matrix(0.06172839506172839,0,0,0.06172839506172839,98.58024691358025,0)" xlink:href="#ag"/></g><path fill="#3a414a" d="M30 0v-248h187v28H63v79h144v27H63v87h162V0H30" id="ao"/><path fill="#3a414a" d="M108 0H70L1-190h34L89-25l56-165h34" id="ap"/><g id="n"><use transform="matrix(0.06172839506172839,0,0,0.06172839506172839,0,0)" xlink:href="#ao"/><use transform="matrix(0.06172839506172839,0,0,0.06172839506172839,14.814814814814813,0)" xlink:href="#ap"/><use transform="matrix(0.06172839506172839,0,0,0.06172839506172839,25.925925925925924,0)" xlink:href="#U"/><use transform="matrix(0.06172839506172839,0,0,0.06172839506172839,38.2716049382716,0)" xlink:href="#Y"/><use transform="matrix(0.06172839506172839,0,0,0.06172839506172839,50.61728395061728,0)" xlink:href="#al"/><use transform="matrix(0.06172839506172839,0,0,0.06172839506172839,56.79012345679012,0)" xlink:href="#ag"/><use transform="matrix(0.06172839506172839,0,0,0.06172839506172839,71.60493827160494,0)" xlink:href="#ah"/><use transform="matrix(0.06172839506172839,0,0,0.06172839506172839,78.95061728395062,0)" xlink:href="#W"/><use transform="matrix(0.06172839506172839,0,0,0.06172839506172839,83.82716049382717,0)" xlink:href="#ae"/><use transform="matrix(0.06172839506172839,0,0,0.06172839506172839,96.17283950617285,0)" xlink:href="#V"/><use transform="matrix(0.06172839506172839,0,0,0.06172839506172839,108.51851851851853,0)" xlink:href="#U"/></g><path fill="#3a414a" d="M84 4C-5 8 30-112 23-190h32v120c0 31 7 50 39 49 72-2 45-101 50-169h31l1 190h-30c-1-10 1-25-2-33-11 22-28 36-60 37" id="aq"/><path fill="#3a414a" d="M63-220v92h138v28H63V0H30v-248h175v28H63" id="ar"/><g id="o"><use transform="matrix(0.06172839506172839,0,0,0.06172839506172839,0,0)" xlink:href="#Q"/><use transform="matrix(0.06172839506172839,0,0,0.06172839506172839,15.987654320987653,0)" xlink:href="#aa"/><use transform="matrix(0.06172839506172839,0,0,0.06172839506172839,20.864197530864196,0)" xlink:href="#X"/><use transform="matrix(0.06172839506172839,0,0,0.06172839506172839,33.20987654320987,0)" xlink:href="#aq"/><use transform="matrix(0.06172839506172839,0,0,0.06172839506172839,45.55555555555555,0)" xlink:href="#ae"/><use transform="matrix(0.06172839506172839,0,0,0.06172839506172839,57.90123456790123,0)" xlink:href="#ar"/><use transform="matrix(0.06172839506172839,0,0,0.06172839506172839,71.41975308641975,0)" xlink:href="#ah"/><use transform="matrix(0.06172839506172839,0,0,0.06172839506172839,78.76543209876543,0)" xlink:href="#X"/><use transform="matrix(0.06172839506172839,0,0,0.06172839506172839,91.11111111111111,0)" xlink:href="#Y"/><use transform="matrix(0.06172839506172839,0,0,0.06172839506172839,103.4567901234568,0)" xlink:href="#al"/></g><g id="p"><use transform="matrix(0.06172839506172839,0,0,0.06172839506172839,0,0)" xlink:href="#Q"/><use transform="matrix(0.06172839506172839,0,0,0.06172839506172839,15.987654320987653,0)" xlink:href="#aa"/><use transform="matrix(0.06172839506172839,0,0,0.06172839506172839,20.864197530864196,0)" xlink:href="#W"/><use transform="matrix(0.06172839506172839,0,0,0.06172839506172839,25.74074074074074,0)" xlink:href="#U"/><use transform="matrix(0.06172839506172839,0,0,0.06172839506172839,38.08641975308642,0)" xlink:href="#Y"/><use transform="matrix(0.06172839506172839,0,0,0.06172839506172839,50.432098765432094,0)" xlink:href="#al"/></g><g id="q"><use transform="matrix(0.06172839506172839,0,0,0.06172839506172839,0,0)" xlink:href="#P"/><use transform="matrix(0.06172839506172839,0,0,0.06172839506172839,14.814814814814813,0)" xlink:href="#al"/><use transform="matrix(0.06172839506172839,0,0,0.06172839506172839,20.98765432098765,0)" xlink:href="#Z"/><use transform="matrix(0.06172839506172839,0,0,0.06172839506172839,33.33333333333333,0)" xlink:href="#al"/><use transform="matrix(0.06172839506172839,0,0,0.06172839506172839,39.50617283950617,0)" xlink:href="#W"/><use transform="matrix(0.06172839506172839,0,0,0.06172839506172839,44.382716049382715,0)" xlink:href="#ai"/></g><g id="r"><use transform="matrix(0.06172839506172839,0,0,0.06172839506172839,0,0)" xlink:href="#ab"/><use transform="matrix(0.06172839506172839,0,0,0.06172839506172839,12.345679012345679,0)" xlink:href="#Z"/><use transform="matrix(0.06172839506172839,0,0,0.06172839506172839,24.691358024691358,0)" xlink:href="#ac"/><use transform="matrix(0.06172839506172839,0,0,0.06172839506172839,43.148148148148145,0)" xlink:href="#ad"/><use transform="matrix(0.06172839506172839,0,0,0.06172839506172839,55.49382716049382,0)" xlink:href="#ae"/><use transform="matrix(0.06172839506172839,0,0,0.06172839506172839,67.8395061728395,0)" xlink:href="#Z"/></g><path fill="#3a414a" d="M140-251c81 0 123 46 123 126C263-53 228-8 163 1c7 30 30 48 69 40v23c-55 16-95-15-103-61C56-3 17-48 17-125c0-80 42-126 123-126zm0 227c63 0 89-41 89-101s-29-99-89-99c-61 0-89 39-89 99S79-25 140-24" id="as"/><g id="s"><use transform="matrix(0.06172839506172839,0,0,0.06172839506172839,0,0)" xlink:href="#ab"/><use transform="matrix(0.06172839506172839,0,0,0.06172839506172839,12.345679012345679,0)" xlink:href="#as"/></g><g id="t"><use transform="matrix(0.06172839506172839,0,0,0.06172839506172839,0,0)" xlink:href="#N"/><use transform="matrix(0.06172839506172839,0,0,0.06172839506172839,14.012345679012345,0)" xlink:href="#O"/><use transform="matrix(0.06172839506172839,0,0,0.06172839506172839,34.938271604938265,0)" xlink:href="#P"/></g><g id="u"><use transform="matrix(0.06172839506172839,0,0,0.06172839506172839,0,0)" xlink:href="#ar"/><use transform="matrix(0.06172839506172839,0,0,0.06172839506172839,13.518518518518517,0)" xlink:href="#Z"/><use transform="matrix(0.06172839506172839,0,0,0.06172839506172839,25.864197530864196,0)" xlink:href="#ah"/><use transform="matrix(0.06172839506172839,0,0,0.06172839506172839,33.20987654320987,0)" xlink:href="#V"/><use transform="matrix(0.06172839506172839,0,0,0.06172839506172839,45.55555555555555,0)" xlink:href="#Z"/><use transform="matrix(0.06172839506172839,0,0,0.06172839506172839,57.90123456790123,0)" xlink:href="#al"/><use transform="matrix(0.06172839506172839,0,0,0.06172839506172839,64.07407407407406,0)" xlink:href="#U"/></g><g id="v"><use transform="matrix(0.06172839506172839,0,0,0.06172839506172839,0,0)" xlink:href="#R"/><use transform="matrix(0.06172839506172839,0,0,0.06172839506172839,15.987654320987653,0)" xlink:href="#Z"/><use transform="matrix(0.06172839506172839,0,0,0.06172839506172839,28.333333333333332,0)" xlink:href="#al"/><use transform="matrix(0.06172839506172839,0,0,0.06172839506172839,34.50617283950617,0)" xlink:href="#Z"/></g><g id="w"><use transform="matrix(0.06172839506172839,0,0,0.06172839506172839,0,0)" xlink:href="#ar"/><use transform="matrix(0.06172839506172839,0,0,0.06172839506172839,13.518518518518517,0)" xlink:href="#U"/><use transform="matrix(0.06172839506172839,0,0,0.06172839506172839,25.864197530864196,0)" xlink:href="#al"/><use transform="matrix(0.06172839506172839,0,0,0.06172839506172839,32.03703703703704,0)" xlink:href="#ai"/><use transform="matrix(0.06172839506172839,0,0,0.06172839506172839,43.14814814814815,0)" xlink:href="#ak"/></g><path fill="#3a414a" d="M30-248c87 1 191-15 191 75 0 78-77 80-158 76V0H30v-248zm33 125c57 0 124 11 124-50 0-59-68-47-124-48v98" id="at"/><path fill="#3a414a" d="M33 0v-248h34V0H33" id="au"/><g id="x"><use transform="matrix(0.06172839506172839,0,0,0.06172839506172839,0,0)" xlink:href="#N"/><use transform="matrix(0.06172839506172839,0,0,0.06172839506172839,14.814814814814813,0)" xlink:href="#at"/><use transform="matrix(0.06172839506172839,0,0,0.06172839506172839,29.629629629629626,0)" xlink:href="#au"/></g><path fill="#3a414a" d="M232-93c-1 65-40 97-104 97C67 4 28-28 28-90v-158h33c8 89-33 224 67 224 102 0 64-133 71-224h33v155" id="av"/><g id="y"><use transform="matrix(0.06172839506172839,0,0,0.06172839506172839,0,0)" xlink:href="#av"/><use transform="matrix(0.06172839506172839,0,0,0.06172839506172839,15.987654320987653,0)" xlink:href="#af"/><use transform="matrix(0.06172839506172839,0,0,0.06172839506172839,27.098765432098766,0)" xlink:href="#U"/><use transform="matrix(0.06172839506172839,0,0,0.06172839506172839,39.44444444444444,0)" xlink:href="#ah"/><use transform="matrix(0.06172839506172839,0,0,0.06172839506172839,46.79012345679012,0)" xlink:href="#af"/></g></defs></g></svg>